<svg id="visual" viewBox="0 0 900 600" width="900" height="600" xmlns="http://www.w3.org/2000/svg" xmlns:xlink="http://www.w3.org/1999/xlink" version="1.1"><g transform="translate(468.26186434051715 325.5511031047894)"><path d="M97.3 -134.7C115.8 -100.5 113.3 -60 119.7 -21.4C126.1 17.1 141.4 53.8 129.8 75.9C118.2 97.9 79.6 105.3 43.2 118.6C6.7 131.9 -27.6 151 -51.3 141.9C-75 132.9 -88.2 95.7 -111.7 61.4C-135.2 27.1 -169 -4.3 -170.5 -35.9C-171.9 -67.5 -140.9 -99.3 -107.1 -130.8C-73.3 -162.3 -36.6 -193.7 1.4 -195.3C39.4 -197 78.8 -169 97.3 -134.7" fill="#2e7a8d"></path></g></svg>