<svg id="visual" viewBox="0 0 540 960" width="540" height="960" xmlns="http://www.w3.org/2000/svg" xmlns:xlink="http://www.w3.org/1999/xlink" version="1.1"><g><g transform="translate(367 535)"><path d="M0 -53.1L46 -26.6L46 26.6L0 53.1L-46 26.6L-46 -26.6Z" stroke="#ebebeb" fill="none" stroke-width="2"></path></g><g transform="translate(159 856)"><path d="M0 -24L20.8 -12L20.8 12L0 24L-20.8 12L-20.8 -12Z" stroke="#ebebeb" fill="none" stroke-width="2"></path></g><g transform="translate(439 350)"><path d="M0 -7L6.1 -3.5L6.1 3.5L0 7L-6.1 3.5L-6.1 -3.5Z" stroke="#ebebeb" fill="none" stroke-width="2"></path></g><g transform="translate(166 416)"><path d="M0 -47L40.7 -23.5L40.7 23.5L0 47L-40.7 23.5L-40.7 -23.5Z" stroke="#ebebeb" fill="none" stroke-width="2"></path></g><g transform="translate(402 243)"><path d="M0 -33L28.6 -16.5L28.6 16.5L0 33L-28.6 16.5L-28.6 -16.5Z" stroke="#ebebeb" fill="none" stroke-width="2"></path></g><g transform="translate(234 296)"><path d="M0 -20L17.3 -10L17.3 10L0 20L-17.3 10L-17.3 -10Z" stroke="#ebebeb" fill="none" stroke-width="2"></path></g><g transform="translate(54 326)"><path d="M0 -50L43.3 -25L43.3 25L0 50L-43.3 25L-43.3 -25Z" stroke="#ebebeb" fill="none" stroke-width="2"></path></g><g transform="translate(89 134)"><path d="M0 -20L17.3 -10L17.3 10L0 20L-17.3 10L-17.3 -10Z" stroke="#ebebeb" fill="none" stroke-width="2"></path></g><g transform="translate(102 583)"><path d="M0 -41L35.5 -20.5L35.5 20.5L0 41L-35.5 20.5L-35.5 -20.5Z" stroke="#ebebeb" fill="none" stroke-width="2"></path></g><g transform="translate(313 670)"><path d="M0 -47L40.7 -23.5L40.7 23.5L0 47L-40.7 23.5L-40.7 -23.5Z" stroke="#ebebeb" fill="none" stroke-width="2"></path></g><g transform="translate(234 112)"><path d="M0 -33L28.6 -16.5L28.6 16.5L0 33L-28.6 16.5L-28.6 -16.5Z" stroke="#ebebeb" fill="none" stroke-width="2"></path></g><g transform="translate(166 699)"><path d="M0 -28L24.2 -14L24.2 14L0 28L-24.2 14L-24.2 -14Z" stroke="#ebebeb" fill="none" stroke-width="2"></path></g><g transform="translate(333 363)"><path d="M0 -25L21.7 -12.5L21.7 12.5L0 25L-21.7 12.5L-21.7 -12.5Z" stroke="#ebebeb" fill="none" stroke-width="2"></path></g><g transform="translate(210 575)"><path d="M0 -15L13 -7.5L13 7.5L0 15L-13 7.5L-13 -7.5Z" stroke="#ebebeb" fill="none" stroke-width="2"></path></g><g transform="translate(330 789)"><path d="M0 -7L6.1 -3.5L6.1 3.5L0 7L-6.1 3.5L-6.1 -3.5Z" stroke="#ebebeb" fill="none" stroke-width="2"></path></g><g transform="translate(428 77)"><path d="M0 -38L32.9 -19L32.9 19L0 38L-32.9 19L-32.9 -19Z" stroke="#ebebeb" fill="none" stroke-width="2"></path></g><g transform="translate(461 834)"><path d="M0 -49L42.4 -24.5L42.4 24.5L0 49L-42.4 24.5L-42.4 -24.5Z" stroke="#ebebeb" fill="none" stroke-width="2"></path></g></g></svg>