<svg id="visual" viewBox="0 0 900 600" width="900" height="600" xmlns="http://www.w3.org/2000/svg" xmlns:xlink="http://www.w3.org/1999/xlink" version="1.1"><path d="M0 169L82 181L164 109L245 169L327 229L409 241L491 103L573 253L655 151L736 139L818 223L900 85L900 0L818 0L736 0L655 0L573 0L491 0L409 0L327 0L245 0L164 0L82 0L0 0Z" fill="#00cc8e"></path><path d="M0 229L82 307L164 247L245 271L327 295L409 307L491 199L573 325L655 271L736 253L818 373L900 253L900 83L818 221L736 137L655 149L573 251L491 101L409 239L327 227L245 167L164 107L82 179L0 167Z" fill="#00b98a"></path><path d="M0 457L82 391L164 445L245 457L327 445L409 403L491 457L573 427L655 457L736 439L818 511L900 469L900 251L818 371L736 251L655 269L573 323L491 197L409 305L327 293L245 269L164 245L82 305L0 227Z" fill="#00a784"></path><path d="M0 517L82 481L164 541L245 547L327 529L409 481L491 553L573 475L655 559L736 523L818 559L900 529L900 467L818 509L736 437L655 455L573 425L491 455L409 401L327 443L245 455L164 443L82 389L0 455Z" fill="#00957c"></path><path d="M0 601L82 601L164 601L245 601L327 601L409 601L491 601L573 601L655 601L736 601L818 601L900 601L900 527L818 557L736 521L655 557L573 473L491 551L409 479L327 527L245 545L164 539L82 479L0 515Z" fill="#038373"></path></svg>